<svg xmlns="http://www.w3.org/2000/svg" viewBox="160.35077914078602 -117.17486907643669 3442.649220859214 503.30052369425334"><path d="M 250.35077914078602,53 L 270.675389570393,53 Q 278.675389570393,53 278.675389570393,45 L 278.675389570393,45 Q 278.675389570393,37 286.675389570393,37 L 307,37" stroke="#000" stroke-width="2" fill="none" />
<path d="M 517,37 L 668,37" stroke="#000" stroke-width="2" fill="none" />
<path d="M 934,37 L 1003.5,37 Q 1013.5,37 1013.5,47 L 1013.5,290 Q 1013.5,300 1023.5,300 L 1093,300" stroke="#000" stroke-width="2" fill="none" />
<path d="M 934,37 L 1020.5,37 Q 1030.5,37 1030.5,27 L 1030.5,-35 Q 1030.5,-45 1040.5,-45 L 1127,-45" stroke="#000" stroke-width="2" fill="none" />
<path d="M 1335,300 L 2415.9371726910917,300 Q 2424,300 2424,308.0628273089083 L 2424,308.0628273089083 Q 2424,316.1256546178166 2432.0628273089083,316.1256546178166 L 3513,316.1256546178166" stroke="#000" stroke-width="2" fill="none" />
<path d="M 1297,-45 L 1407,-45 Q 1407.5,-45 1407.5,-45.5 L 1407.5,-45.5 Q 1407.5,-46 1408,-46 L 1518,-46" stroke="#000" stroke-width="2" fill="none" />
<path d="M 1704,-46 L 1926,-46" stroke="#000" stroke-width="2" fill="none" />
<path d="M 2096,-46 L 2321,-46" stroke="#000" stroke-width="2" fill="none" />
<path d="M 2507,-46 L 2731,-46" stroke="#000" stroke-width="2" fill="none" />
<path d="M 2893,-46 L 3008.4125654617815,-46 Q 3009,-46 3009,-46.587434538218346 L 3009,-46.587434538218346 Q 3009,-47.17486907643669 3009.5874345382185,-47.17486907643669 L 3125,-47.17486907643669" stroke="#000" stroke-width="2" fill="none" />
<path d="M 3303,-47.17486907643669 L 3398,-47.17486907643669 Q 3408,-47.17486907643669 3408,-37.17486907643669 L 3408,306.1256546178166 Q 3408,316.1256546178166 3418,316.1256546178166 L 3513,316.1256546178166" stroke="#000" stroke-width="2" fill="none" />
<g><circle cx="230.35077914078602" cy="53" r="20" fill="#fff" stroke="#000" stroke-width="2" data-testid="begin-node" /></g>
<g><rect x="307" y="17" width="210" height="40" rx="10" ry="10" fill="#fff" stroke="#000" stroke-width="2" data-testid="task-node" /><text x="412" y="37" dominant-baseline="middle" text-anchor="middle" font-family="sans-serif" font-size="14">Activate 7-day Trial</text></g>
<g><rect x="668" y="17" width="266" height="40" rx="10" ry="10" fill="#fff" stroke="#000" stroke-width="2" data-testid="task-node" /><text x="801" y="37" dominant-baseline="middle" text-anchor="middle" font-family="sans-serif" font-size="14">Initiate Subscription Watch</text></g>
<g><rect x="1093" y="280" width="242" height="40" rx="10" ry="10" fill="#fff" stroke="#000" stroke-width="2" data-testid="waitForEvent-node" /><g transform="translate(1108, 288) scale(1.0)"><svg xmlns="http://www.w3.org/2000/svg" width="24" height="24" viewBox="0 0 24 24" fill="none" stroke="currentColor" stroke-width="2" stroke-linecap="round" stroke-linejoin="round" class="lucide lucide-mail-icon lucide-mail"><path d="m22 7-8.991 5.727a2 2 0 0 1-2.009 0L2 7"/><rect x="2" y="4" width="20" height="16" rx="2"/></svg></g><text x="1224" y="300" dominant-baseline="middle" text-anchor="middle" font-family="sans-serif" font-size="14">Wait for Plan Activation</text></g>
<g><rect x="1127" y="-65" width="170" height="40" rx="10" ry="10" fill="#fff" stroke="#000" stroke-width="2" data-testid="resumeAfter-node" /><g transform="translate(1142, -57) scale(1.0)"><svg xmlns="http://www.w3.org/2000/svg" width="24" height="24" viewBox="0 0 24 24" fill="none" stroke="currentColor" stroke-width="2" stroke-linecap="round" stroke-linejoin="round" class="lucide lucide-timer-icon lucide-timer"><line x1="10" x2="14" y1="2" y2="2"/><line x1="12" x2="15" y1="14" y2="11"/><circle cx="12" cy="14" r="8"/></svg></g><text x="1222" y="-52" dominant-baseline="middle" text-anchor="middle" font-family="sans-serif" font-size="14">Wait for 3 Days</text><text x="1222" y="-35" dominant-baseline="middle" text-anchor="middle" font-family="sans-serif" font-size="10" fill="#555">3 days</text></g>
<g><rect x="1518" y="-66" width="186" height="40" rx="10" ry="10" fill="#fff" stroke="#000" stroke-width="2" data-testid="task-node" /><text x="1611" y="-46" dominant-baseline="middle" text-anchor="middle" font-family="sans-serif" font-size="14">Send 1st Reminder</text></g>
<g><rect x="1926" y="-66" width="170" height="40" rx="10" ry="10" fill="#fff" stroke="#000" stroke-width="2" data-testid="resumeAfter-node" /><g transform="translate(1941, -58) scale(1.0)"><svg xmlns="http://www.w3.org/2000/svg" width="24" height="24" viewBox="0 0 24 24" fill="none" stroke="currentColor" stroke-width="2" stroke-linecap="round" stroke-linejoin="round" class="lucide lucide-timer-icon lucide-timer"><line x1="10" x2="14" y1="2" y2="2"/><line x1="12" x2="15" y1="14" y2="11"/><circle cx="12" cy="14" r="8"/></svg></g><text x="2021" y="-53" dominant-baseline="middle" text-anchor="middle" font-family="sans-serif" font-size="14">Wait for 2 Days</text><text x="2021" y="-36" dominant-baseline="middle" text-anchor="middle" font-family="sans-serif" font-size="10" fill="#555">2 days</text></g>
<g><rect x="2321" y="-66" width="186" height="40" rx="10" ry="10" fill="#fff" stroke="#000" stroke-width="2" data-testid="task-node" /><text x="2414" y="-46" dominant-baseline="middle" text-anchor="middle" font-family="sans-serif" font-size="14">Send 2nd Reminder</text></g>
<g><rect x="2731" y="-66" width="162" height="40" rx="10" ry="10" fill="#fff" stroke="#000" stroke-width="2" data-testid="resumeAfter-node" /><g transform="translate(2746, -58) scale(1.0)"><svg xmlns="http://www.w3.org/2000/svg" width="24" height="24" viewBox="0 0 24 24" fill="none" stroke="currentColor" stroke-width="2" stroke-linecap="round" stroke-linejoin="round" class="lucide lucide-timer-icon lucide-timer"><line x1="10" x2="14" y1="2" y2="2"/><line x1="12" x2="15" y1="14" y2="11"/><circle cx="12" cy="14" r="8"/></svg></g><text x="2822" y="-53" dominant-baseline="middle" text-anchor="middle" font-family="sans-serif" font-size="14">Wait for 1 Day</text><text x="2822" y="-36" dominant-baseline="middle" text-anchor="middle" font-family="sans-serif" font-size="10" fill="#555">1 day</text></g>
<g><rect x="3125" y="-67.17486907643669" width="178" height="40" rx="10" ry="10" fill="#fff" stroke="#000" stroke-width="2" data-testid="task-node" /><text x="3214" y="-47.17486907643669" dominant-baseline="middle" text-anchor="middle" font-family="sans-serif" font-size="14">Deactivate Trial</text></g>
<g><circle cx="3533" cy="316.1256546178166" r="20" fill="#000" data-testid="end-node" /></g></svg>