<svg xmlns="http://www.w3.org/2000/svg" viewBox="-58 -33 1740 242.94592211609114"><path d="M 32,37 L 320,37" stroke="#000" stroke-width="2" fill="none" />
<path d="M 504,37 L 712,37" stroke="#000" stroke-width="2" fill="none" />
<g><path d="M 912,37 L 1592,37" stroke="#000" stroke-width="2" fill="none" /><text x="1252" y="32" dominant-baseline="auto" text-anchor="middle" font-family="sans-serif" font-size="12" fill="#000">state.profileIsComplete == true</text></g>
<g><path d="M 912,37 L 995.3833945628215,37 Q 1005.3833945628215,37 1005.3833945628215,47 L 1005.3833945628215,129.94592211609114 Q 1005.3833945628215,139.94592211609114 1015.3833945628215,139.94592211609114 L 1098.766789125643,139.94592211609114" stroke="#000" stroke-width="2" fill="none" /><text x="1005.3833945628215" y="83.47296105804557" dominant-baseline="auto" text-anchor="middle" font-family="sans-serif" font-size="12" fill="#000">state.profileIsComplete == false</text></g>
<path d="M 1306.766789125643,139.94592211609114 L 1439.3833945628216,139.94592211609114 Q 1449.3833945628216,139.94592211609114 1449.3833945628216,129.94592211609114 L 1449.3833945628216,47 Q 1449.3833945628216,37 1459.3833945628216,37 L 1592,37" stroke="#000" stroke-width="2" fill="none" />
<g><circle cx="12" cy="37" r="20" fill="#fff" stroke="#000" stroke-width="2" data-testid="begin-node" /></g>
<g><rect x="320" y="17" width="184" height="40" rx="10" ry="10" fill="#fff" stroke="#000" stroke-width="2" data-testid="task-node" /><text x="412" y="37" dominant-baseline="middle" text-anchor="middle" font-family="sans-serif" font-size="14">Send Welcome Email</text></g>
<g><rect x="712" y="17" width="200" height="40" rx="10" ry="10" fill="#fff" stroke="#000" stroke-width="2" data-testid="decision-node" /><text x="812" y="37" dominant-baseline="middle" text-anchor="middle" font-family="sans-serif" font-size="14">Is Profile Complete?</text></g>
<g><rect x="1098.766789125643" y="119.94592211609114" width="208" height="40" rx="10" ry="10" fill="#fff" stroke="#000" stroke-width="2" data-testid="task-node" /><text x="1202.766789125643" y="139.94592211609114" dominant-baseline="middle" text-anchor="middle" font-family="sans-serif" font-size="14">Send Profile Reminder</text></g>
<g><circle cx="1612" cy="37" r="20" fill="#000" data-testid="end-node" /></g></svg>