<svg xmlns="http://www.w3.org/2000/svg" viewBox="-58 -58 1740 440"><path d="M 32,37 L 300,37" stroke="#000" stroke-width="2" fill="none" />
<path d="M 524,37 L 610,37 Q 620,37 620,47 L 620,302 Q 620,312 630,312 L 716,312" stroke="#000" stroke-width="2" fill="none" />
<path d="M 524,37 L 592,37 Q 602,37 602,27 L 602,22 Q 602,12 612,12 L 680,12" stroke="#000" stroke-width="2" fill="none" />
<path d="M 908,312 L 992,312 Q 1002,312 1002,302 L 1002,47 Q 1002,37 1012,37 L 1096,37" stroke="#000" stroke-width="2" fill="none" />
<path d="M 944,12 L 1010,12 Q 1020,12 1020,22 L 1020,27 Q 1020,37 1030,37 L 1096,37" stroke="#000" stroke-width="2" fill="none" />
<path d="M 1328,37 L 1592,37" stroke="#000" stroke-width="2" fill="none" />
<g><circle cx="12" cy="37" r="20" fill="#fff" stroke="#000" stroke-width="2" data-testid="begin-node" /></g>
<g><rect x="300" y="17" width="224" height="40" rx="10" ry="10" fill="#fff" stroke="#000" stroke-width="2" data-testid="task-node" /><text x="412" y="37" dominant-baseline="middle" text-anchor="middle" font-family="sans-serif" font-size="14">Initiate Parallel Tasks</text></g>
<g><rect x="716" y="292" width="192" height="40" rx="10" ry="10" fill="#fff" stroke="#000" stroke-width="2" data-testid="task-node" /><text x="812" y="312" dominant-baseline="middle" text-anchor="middle" font-family="sans-serif" font-size="14">Update Search Index</text></g>
<g><rect x="680" y="-8" width="264" height="40" rx="10" ry="10" fill="#fff" stroke="#000" stroke-width="2" data-testid="task-node" /><text x="812" y="12" dominant-baseline="middle" text-anchor="middle" font-family="sans-serif" font-size="14">Send &apos;Profile Updated&apos; Email</text></g>
<g><rect x="1096" y="17" width="232" height="40" rx="10" ry="10" fill="#fff" stroke="#000" stroke-width="2" data-testid="task-node" /><text x="1212" y="37" dominant-baseline="middle" text-anchor="middle" font-family="sans-serif" font-size="14">Synchronize and Finalize</text></g>
<g><circle cx="1612" cy="37" r="20" fill="#000" data-testid="end-node" /></g></svg>