<svg xmlns="http://www.w3.org/2000/svg" viewBox="-58 -64.53675905158488 1710.311657922156 327.87312359819794"><path d="M 32,37 L 60.45207448868322,37 Q 68.33626425157945,37 68.33626425157945,29.115810237103773 L 68.33626425157945,29.115810237103773 Q 68.33626425157945,21.231620474207546 76.22045401447568,21.231620474207546 L 104.6725285031589,21.231620474207546" stroke="#000" stroke-width="2" fill="none" />
<path d="M 264.6725285031589,21.231620474207546 L 454.739326671483,21.231620474207546" stroke="#000" stroke-width="2" fill="none" />
<path d="M 614.739326671483,21.231620474207546 L 686.6324094841513,21.231620474207546 Q 694.5165992470475,21.231620474207546 694.5165992470475,13.347430711311333 L 694.5165992470475,13.347430711311333 Q 694.5165992470475,5.46324094841512 702.4007890099437,5.46324094841512 L 774.2938718226119,5.46324094841512" stroke="#000" stroke-width="2" fill="none" />
<g><path d="M 974.2938718226119,5.46324094841512 L 1261.732606736637,5.46324094841512 Q 1268.302764872384,5.46324094841512 1268.302764872384,12.033399084161957 L 1268.302764872384,12.033399084161957 Q 1268.302764872384,18.603557219908794 1274.8729230081308,18.603557219908794 L 1562.311657922156,18.603557219908794" stroke="#000" stroke-width="2" fill="none" /><text x="1268.302764872384" y="7.033399084161957" dominant-baseline="auto" text-anchor="middle" font-family="sans-serif" font-size="12" fill="#000">state.accountType == &apos;personal&apos;</text></g>
<g><path d="M 974.2938718226119,5.46324094841512 L 1037.4720337031536,5.46324094841512 Q 1047.4720337031536,5.46324094841512 1047.4720337031536,15.46324094841512 L 1047.4720337031536,183.33636454661308 Q 1047.4720337031536,193.33636454661308 1057.4720337031536,193.33636454661308 L 1120.6501955836952,193.33636454661308" stroke="#000" stroke-width="2" fill="none" /><text x="1047.4720337031536" y="94.3998027475141" dominant-baseline="auto" text-anchor="middle" font-family="sans-serif" font-size="12" fill="#000">state.accountType == &apos;business&apos;</text></g>
<path d="M 1288.6501955836952,193.33636454661308 L 1415.4809267529256,193.33636454661308 Q 1425.4809267529256,193.33636454661308 1425.4809267529256,183.33636454661308 L 1425.4809267529256,28.603557219908794 Q 1425.4809267529256,18.603557219908794 1435.4809267529256,18.603557219908794 L 1562.311657922156,18.603557219908794" stroke="#000" stroke-width="2" fill="none" />
<g><circle cx="12" cy="37" r="20" fill="#fff" stroke="#000" stroke-width="2" data-testid="begin-node" /></g>
<g><rect x="104.6725285031589" y="1.2316204742075456" width="160" height="40" rx="10" ry="10" fill="#fff" stroke="#000" stroke-width="2" data-testid="task-node" /><text x="184.6725285031589" y="21.231620474207546" dominant-baseline="middle" text-anchor="middle" font-family="sans-serif" font-size="14">Account Details</text></g>
<g><rect x="454.739326671483" y="1.2316204742075456" width="160" height="40" rx="10" ry="10" fill="#fff" stroke="#000" stroke-width="2" data-testid="task-node" /><text x="534.739326671483" y="21.231620474207546" dominant-baseline="middle" text-anchor="middle" font-family="sans-serif" font-size="14">Profile Details</text></g>
<g><rect x="774.2938718226119" y="-14.53675905158488" width="200" height="40" rx="10" ry="10" fill="#fff" stroke="#000" stroke-width="2" data-testid="decision-node" /><text x="874.2938718226119" y="5.46324094841512" dominant-baseline="middle" text-anchor="middle" font-family="sans-serif" font-size="14">Ask for Account Type</text></g>
<g><rect x="1120.6501955836952" y="173.33636454661308" width="168" height="40" rx="10" ry="10" fill="#fff" stroke="#000" stroke-width="2" data-testid="task-node" /><text x="1204.6501955836952" y="193.33636454661308" dominant-baseline="middle" text-anchor="middle" font-family="sans-serif" font-size="14">Business Details</text></g>
<g><circle cx="1582.311657922156" cy="18.603557219908794" r="20" fill="#000" data-testid="end-node" /></g></svg>